<?xml version="1.0" standalone="no"?><!DOCTYPE svg PUBLIC "-//W3C//DTD SVG 1.1//EN" "http://www.w3.org/Graphics/SVG/1.1/DTD/svg11.dtd"><svg t="1698844251271" class="icon" viewBox="0 0 1024 1024" version="1.1" xmlns="http://www.w3.org/2000/svg" p-id="4222" xmlns:xlink="http://www.w3.org/1999/xlink" width="200" height="200"><path d="M838.627059 771.514545c13.915941 14.117532-182.907797-166.698626-182.907797-166.698626s-12.992919-8.066723-12.992919 45.705971c0 21.605064 0 69.642127 0 124.629485l136.257314 0c46.116317 0 83.502809 42.349527 83.502809 89.124853 0 46.777373-37.386492 87.228667-83.502809 87.228667l-542.178323 0c-46.116317 0-83.504856-40.451294-83.504856-87.228667 0-46.775326 37.388539-89.124853 83.504856-89.124853l142.94462 0c0-54.987359 0-103.024421 0-124.629485 0-53.772694-19.682271-45.705971-19.682271-45.705971S163.244968 785.632077 177.162956 771.514545c-85.822644 65.874313-108.35687-38.649252-68.923766-83.349313 25.511024-23.523763 190.858886-158.63395 190.858886-158.63395s41.676192-202.683189 210.813357-203.176422c0.008186-0.824785 0.01228-1.052982 0.01228-0.045025 0.102331 0 0.187265 0.022513 0.291642 0.022513 0.098237 0 0.185218-0.022513 0.287549-0.022513 0-1.007957 0.004093-0.779759 0.01228 0.045025 169.122839 0.494257 206.172663 203.176422 206.172663 203.176422s165.347862 135.110187 190.862979 158.63395C946.979836 732.865293 924.447656 837.388858 838.627059 771.514545zM509.923712 287.097764c-58.072627 0-105.150852-47.748491-105.150852-106.647949 0-58.903551 47.077202-106.654089 105.150852-106.654089s105.150852 47.750537 105.150852 106.654089C615.074563 239.34825 567.996338 287.097764 509.923712 287.097764z" fill="#17abe3" p-id="4223"></path></svg>